<?xml version="1.0" standalone="no"?>
<!DOCTYPE svg PUBLIC "-//W3C//DTD SVG 20010904//EN"
 "http://www.w3.org/TR/2001/REC-SVG-20010904/DTD/svg10.dtd">
<svg version="1.0" xmlns="http://www.w3.org/2000/svg"
 width="892.000000pt" height="892.000000pt" viewBox="0 0 892.000000 892.000000"
 preserveAspectRatio="xMidYMid meet">
<metadata>
Created by potrace 1.14, written by Peter Selinger 2001-2017
</metadata>
<g transform="translate(0.000000,892.000000) scale(0.100000,-0.100000)"
fill="#000000" stroke="none">
<path d="M3527 8814 c-1 -1 -38 -5 -82 -7 -44 -3 -80 -6 -80 -7 0 -1 -13 -3
-30 -5 -38 -3 -90 -13 -134 -25 -19 -5 -37 -8 -39 -5 -2 2 -24 -5 -48 -15 -24
-11 -44 -17 -44 -15 0 2 -20 -4 -45 -15 -25 -11 -47 -19 -50 -20 -7 0 -139
-64 -145 -70 -3 -3 -38 -26 -77 -52 -135 -89 -222 -169 -344 -319 -68 -82
-256 -283 -429 -458 -146 -147 -209 -220 -288 -335 -49 -71 -142 -235 -141
-249 0 -1 -5 -15 -11 -32 -15 -37 -19 -56 -26 -125 -6 -52 -48 -150 -65 -150
-4 0 -10 -8 -13 -17 -3 -10 -26 -40 -51 -66 -25 -27 -45 -50 -45 -52 0 -2 -30
-34 -68 -72 -56 -56 -106 -114 -177 -200 -5 -7 -15 -18 -21 -25 -5 -7 -13 -20
-17 -28 -4 -8 -16 -28 -27 -45 -16 -25 -48 -87 -55 -105 -1 -3 -4 -12 -8 -20
-11 -30 -36 -116 -41 -140 -23 -133 -26 -182 -31 -430 -5 -240 -8 -275 -29
-375 -6 -29 -31 -85 -38 -85 -4 0 -8 -6 -8 -12 0 -7 -42 -65 -93 -128 -51 -63
-109 -138 -129 -165 -42 -58 -123 -216 -134 -260 -4 -16 -10 -34 -14 -40 -8
-11 -37 -128 -56 -225 -20 -106 -29 -168 -39 -265 -2 -27 -7 -70 -9 -95 -6
-57 -16 -186 -21 -268 -2 -35 -6 -66 -9 -69 -3 -3 -1 -13 4 -23 5 -10 6 -20 3
-24 -4 -4 -8 -32 -9 -64 -1 -31 -5 -154 -9 -272 -14 -395 -8 -696 20 -960 3
-30 8 -66 10 -80 3 -14 8 -41 11 -60 9 -61 22 -124 35 -175 20 -77 71 -220
105 -295 31 -67 119 -217 134 -230 3 -3 17 -21 30 -40 43 -62 53 -72 175 -195
133 -132 215 -205 319 -280 16 -11 33 -25 40 -30 6 -6 29 -24 51 -40 22 -17
42 -32 45 -35 3 -3 12 -9 21 -15 10 -5 88 -60 175 -121 88 -61 193 -133 234
-160 41 -27 77 -52 80 -55 3 -3 12 -8 20 -12 8 -4 33 -18 55 -32 69 -43 381
-197 428 -210 4 -2 9 -4 12 -5 3 -1 8 -3 13 -5 4 -1 21 -7 37 -14 84 -35 316
-108 395 -124 14 -3 36 -8 50 -11 13 -3 42 -8 64 -12 22 -3 43 -7 46 -9 3 -2
35 -6 70 -9 36 -4 79 -9 95 -11 53 -8 380 -3 380 5 0 1 14 3 30 4 48 5 134 23
210 46 39 11 77 22 85 24 67 18 231 102 331 169 187 125 197 127 627 123 183
-2 336 -6 339 -10 3 -3 12 -1 19 5 8 7 14 7 18 0 4 -7 15 -7 30 -1 13 5 27 6
30 2 8 -7 96 -9 96 -2 0 3 26 5 57 4 125 -1 256 33 303 79 37 36 54 66 70 125
20 76 21 101 24 415 2 169 5 308 7 310 4 3 54 22 264 102 33 13 129 50 214 84
84 34 157 61 161 61 4 0 36 -28 72 -62 169 -162 299 -281 363 -333 39 -31 80
-65 93 -76 12 -10 26 -19 31 -19 5 0 14 -7 21 -14 6 -8 27 -20 46 -26 32 -11
39 -9 73 14 21 15 46 34 57 44 11 9 53 46 94 82 131 114 367 345 561 551 228
241 273 329 223 434 -28 60 -30 62 -276 306 l-228 225 26 60 c14 32 44 97 66
144 64 137 135 310 153 377 17 60 25 69 70 79 6 1 24 5 40 8 17 4 109 9 205
11 96 3 213 8 260 11 47 3 92 5 100 6 8 0 44 7 80 14 79 18 116 49 126 108 3
22 8 50 10 61 12 54 16 175 15 435 -2 429 -5 640 -11 640 -3 0 -5 56 -5 125 1
79 -3 125 -10 126 -37 4 -132 10 -355 23 -47 3 -85 6 -85 6 0 1 -101 8 -218
15 -156 9 -160 10 -168 25 -11 20 -38 81 -99 230 -57 137 -54 129 -134 315
-31 72 -56 137 -56 144 0 8 89 103 198 211 239 238 265 266 290 316 43 85 33
143 -42 248 -84 117 -531 570 -682 691 -27 21 -51 42 -54 45 -12 14 -120 90
-120 84 0 -3 -11 1 -25 10 -32 21 -46 20 -103 -6 -80 -37 -210 -145 -387 -324
l-171 -172 -149 59 c-83 32 -159 63 -170 68 -11 5 -63 26 -115 46 -52 21 -131
53 -175 71 l-80 34 0 248 c-1 220 -8 367 -20 434 -12 63 -19 85 -32 111 -27
54 -140 85 -323 88 -149 3 -186 23 -220 119 -39 116 -72 173 -132 232 -63 62
-118 97 -284 180 -98 49 -135 66 -199 89 -11 4 -58 21 -105 38 -47 18 -85 31
-85 30 0 -1 -25 6 -55 16 -30 9 -64 18 -75 20 -19 4 -58 13 -80 19 -17 5 -79
17 -105 21 -14 2 -36 6 -50 9 -69 15 -424 39 -433 30z m238 -388 c55 -5 166
-22 205 -30 14 -3 36 -8 50 -11 99 -19 94 -18 255 -71 214 -71 360 -136 376
-166 46 -86 54 -568 54 -3188 0 -2493 -4 -2722 -51 -2980 -33 -185 -199 -597
-318 -790 -34 -54 -128 -193 -135 -200 -3 -3 -28 -32 -56 -65 -103 -122 -213
-214 -353 -293 -39 -23 -72 -38 -72 -35 0 3 -6 1 -12 -4 -29 -23 -166 -65
-288 -88 -58 -11 -291 -14 -360 -4 -36 5 -78 11 -95 13 -37 5 -82 14 -115 23
-14 3 -27 7 -30 8 -3 0 -33 7 -67 15 -35 8 -63 18 -63 24 0 5 -3 7 -6 4 -13
-14 -280 90 -419 162 -118 62 -343 191 -370 212 -26 21 -87 58 -95 58 -4 0
-10 3 -12 8 -1 4 -30 25 -63 47 -33 22 -120 85 -194 140 -74 55 -144 107 -155
115 -12 8 -30 24 -42 35 -11 11 -40 36 -65 55 -76 60 -282 273 -324 335 -22
33 -43 62 -46 65 -9 8 -89 170 -84 170 3 0 -5 24 -16 53 -11 28 -20 53 -19 55
1 1 -1 15 -4 30 -29 132 -49 302 -50 429 -1 35 -4 63 -8 63 -4 0 -4 10 1 22 4
12 5 37 1 55 -5 19 -4 33 2 33 5 0 6 6 1 12 -8 14 -11 388 -3 388 3 0 4 24 2
52 -2 29 -3 58 -3 63 0 11 7 253 15 530 6 189 13 314 22 405 4 30 6 62 6 70 0
14 7 61 23 160 8 46 36 133 46 145 5 5 9 17 9 27 0 10 5 18 10 18 6 0 10 7 10
15 0 8 12 36 28 62 15 26 34 61 42 76 8 16 28 40 44 54 l29 24 31 -29 c41 -39
62 -49 116 -57 25 -3 57 -8 71 -11 15 -3 132 -7 260 -9 349 -6 429 -16 513
-66 31 -18 68 -69 73 -101 5 -31 -34 -102 -123 -223 -100 -137 -231 -331 -264
-390 -12 -22 -30 -53 -40 -70 -11 -16 -27 -46 -37 -65 -10 -19 -36 -69 -58
-110 -21 -41 -40 -77 -40 -80 -1 -3 -14 -32 -29 -65 -15 -33 -34 -78 -43 -100
-8 -22 -19 -49 -23 -60 -5 -11 -16 -50 -25 -87 -26 -109 -8 -156 75 -197 77
-38 170 -6 230 80 19 27 40 55 46 62 6 7 24 37 41 67 16 30 40 72 52 93 12 22
42 78 68 125 151 286 366 576 524 708 76 64 80 67 171 127 138 92 383 207 497
232 116 27 176 36 254 40 50 3 99 7 107 8 151 33 233 103 236 201 3 74 -32
123 -83 117 -7 -1 -13 2 -13 7 0 10 -429 8 -515 -2 -117 -15 -151 -21 -225
-43 -30 -9 -63 -18 -72 -20 -10 -1 -89 -34 -175 -73 -86 -38 -160 -70 -164
-70 -4 0 -20 13 -37 28 -197 184 -390 275 -657 309 -61 7 -214 4 -274 -6 -30
-5 -75 -8 -100 -7 l-45 1 -2 100 c-2 55 -5 114 -8 130 -4 29 -12 78 -22 155
-3 19 -7 43 -10 52 -33 114 -35 381 -4 464 5 13 8 24 5 24 -10 0 65 171 98
223 20 31 37 62 37 68 0 6 5 7 10 4 5 -3 10 -1 10 4 0 6 9 21 19 33 11 13 28
33 38 44 77 90 201 214 214 214 8 0 69 -14 135 -31 65 -17 130 -33 144 -36 44
-9 55 -11 55 -13 0 -2 31 -9 60 -15 11 -2 43 -8 71 -14 28 -5 73 -13 100 -17
59 -9 313 -10 369 -2 96 14 228 59 273 93 41 30 114 101 125 121 62 114 80
155 93 215 18 88 21 119 19 197 -4 108 -31 187 -85 240 -72 73 -194 77 -258 9
-30 -32 -70 -131 -68 -168 1 -16 0 -29 -3 -29 -3 0 -6 -33 -6 -73 1 -112 -32
-188 -98 -223 -42 -22 -190 -26 -289 -7 -40 7 -84 15 -98 17 -67 8 -190 40
-229 59 -63 31 -83 62 -82 130 1 80 49 182 146 307 11 14 58 64 105 111 61 61
104 95 153 119 75 38 142 103 215 208 23 35 42 65 42 68 0 3 5 10 10 17 6 7
27 35 47 62 61 83 243 256 338 321 145 98 241 137 365 151 30 3 56 6 57 7 5 4
301 -3 348 -8z m1508 -839 c16 -31 19 -67 22 -215 8 -355 25 -436 112 -518 28
-26 108 -73 128 -74 3 0 25 -9 50 -20 25 -11 45 -17 45 -14 0 3 6 2 13 -3 6
-4 23 -9 37 -11 14 -2 29 -7 34 -13 6 -5 16 -9 22 -9 7 0 25 -5 41 -12 15 -6
30 -12 33 -13 35 -12 171 -70 205 -88 22 -11 46 -22 53 -23 7 -1 19 -8 27 -14
53 -44 345 -173 345 -152 0 4 17 15 38 25 20 10 56 34 79 55 23 20 55 47 71
59 31 24 175 162 322 308 l88 87 64 -65 c34 -36 159 -163 276 -282 207 -211
213 -218 196 -237 -10 -10 -67 -67 -127 -126 -94 -93 -190 -190 -262 -266 -70
-74 -114 -160 -115 -223 0 -47 26 -114 69 -176 26 -38 120 -220 120 -232 0 -3
9 -26 21 -51 11 -26 20 -49 20 -51 0 -3 6 -19 14 -36 7 -18 24 -59 36 -92 12
-33 26 -69 32 -80 5 -12 11 -27 12 -35 10 -49 104 -241 134 -274 50 -55 143
-67 512 -70 l245 -2 0 -399 0 -400 -270 -1 c-293 -2 -355 -6 -428 -30 -91 -30
-131 -90 -201 -299 -20 -60 -41 -119 -46 -130 -5 -11 -21 -49 -36 -85 -14 -36
-73 -157 -130 -270 -58 -113 -106 -220 -109 -239 -3 -30 14 -80 35 -101 3 -3
21 -25 40 -50 19 -25 42 -53 50 -63 22 -28 174 -187 294 -310 58 -60 106 -109
106 -111 0 -3 -168 -170 -424 -421 l-159 -156 -86 84 c-330 326 -476 467 -483
467 -4 0 -46 -18 -95 -41 -48 -22 -108 -50 -133 -61 -25 -11 -87 -40 -139 -64
-51 -24 -97 -44 -102 -44 -12 0 -52 -22 -60 -33 -3 -5 -10 -8 -15 -8 -5 0 -67
-22 -137 -50 -137 -54 -144 -56 -222 -68 -76 -11 -120 -37 -154 -89 -66 -104
-81 -217 -84 -617 l-2 -200 -180 -2 c-258 -2 -419 19 -429 56 -4 15 -1 73 4
79 1 1 3 5 5 10 1 4 5 21 10 37 4 17 33 84 63 150 78 171 134 328 223 620 25
84 74 273 84 323 2 9 4 17 5 17 2 0 5 14 13 60 3 17 8 42 11 58 25 119 25 120
31 242 7 128 9 146 25 175 14 26 49 40 114 44 211 14 653 251 835 449 25 27
56 60 68 73 25 28 110 145 136 189 56 94 140 286 152 345 2 8 8 33 14 55 6 22
13 58 16 80 4 22 8 51 11 65 11 59 17 154 17 290 1 183 -7 272 -38 429 -5 25
-22 85 -32 111 -4 8 -7 18 -8 23 -2 4 -4 9 -5 12 -1 3 -3 9 -4 13 -2 17 -51
117 -58 120 -5 2 -8 12 -8 23 0 10 -4 19 -10 19 -5 0 -10 5 -10 11 0 10 -65
110 -99 152 -166 205 -296 321 -491 438 -111 66 -276 140 -345 154 -11 3 -76
16 -144 30 -69 14 -127 27 -129 30 -7 6 -4 1258 2 1470 7 216 20 296 53 322
23 18 56 1 76 -40z m-15 -2154 c18 -3 35 -10 38 -14 3 -5 11 -9 19 -9 16 0
141 -59 207 -97 82 -48 169 -116 242 -189 106 -105 143 -153 233 -299 34 -55
110 -233 119 -278 2 -10 5 -26 8 -35 5 -15 8 -33 21 -97 21 -111 20 -283 -2
-380 -10 -43 -10 -45 -12 -47 -2 -2 -4 -14 -7 -28 -4 -27 -4 -27 -54 -135 -48
-102 -120 -211 -215 -323 -31 -37 -157 -161 -185 -183 -84 -66 -152 -112 -202
-139 -79 -42 -188 -82 -210 -77 -10 3 -18 2 -18 -2 0 -15 -42 -4 -52 12 -22
41 -38 202 -42 442 -2 89 -6 168 -10 174 -4 6 -3 11 3 11 5 0 8 10 5 23 -11
54 -3 1158 10 1392 13 231 26 301 54 290 10 -4 32 -9 50 -12z"/>
<path d="M4255 7188 c-56 -7 -75 -20 -81 -53 -40 -200 -45 -529 -48 -2700 l-3
-1780 -56 -119 c-31 -65 -57 -120 -57 -123 0 -7 -138 -286 -162 -328 -74 -127
-187 -274 -275 -356 -134 -126 -308 -220 -448 -244 -22 -3 -60 -10 -85 -14
-25 -4 -81 -6 -125 -5 -74 1 -98 4 -180 19 -16 3 -39 8 -50 10 -88 15 -269 94
-314 136 -11 10 -23 19 -27 19 -23 0 -270 233 -430 406 -66 72 -268 298 -334
374 -209 241 -335 356 -416 380 -75 22 -139 -15 -167 -95 -23 -66 -7 -128 59
-232 33 -52 90 -130 104 -143 3 -3 35 -41 70 -85 35 -44 67 -82 70 -85 3 -3
36 -41 74 -85 301 -350 600 -639 796 -770 41 -28 77 -52 80 -55 3 -3 28 -17
55 -30 28 -14 53 -29 56 -33 3 -5 8 -8 10 -6 2 1 26 -8 53 -19 171 -76 392
-104 616 -78 224 26 486 125 700 264 88 57 270 230 270 257 0 8 5 15 10 15 6
0 14 8 17 18 4 9 21 40 37 67 46 75 63 105 87 158 12 26 25 47 30 47 5 0 8 3
7 8 -3 9 145 306 155 310 4 2 7 9 7 16 0 6 22 54 50 106 28 52 50 100 50 107
0 7 3 13 8 13 15 0 3 4266 -13 4450 -3 30 -7 78 -9 105 -5 71 -24 133 -44 144
-27 14 -82 18 -147 9z"/>
</g>
</svg>
